<svg xmlns="http://www.w3.org/2000/svg" viewBox="0 0 100 100" width="32" height="32">
  <!-- Stem -->
  <path d="M51,58 Q50,75 49,96" stroke="#999" stroke-width="2.5" fill="none" stroke-linecap="round"/>

  <!-- Leaves -->
  <path d="M50,73 Q41,67 31,57" stroke="#999" stroke-width="3.5" fill="none" stroke-linecap="round"/>
  <path d="M50,80 Q57,73 62,63" stroke="#999" stroke-width="3" fill="none" stroke-linecap="round"/>

  <!-- Petals — long curved blue strokes from center (~50,42) -->
  <!-- Upper-left -->
  <path d="M47,39 Q34,24 20,10" stroke="#7DC8E8" stroke-width="5" fill="none" stroke-linecap="round"/>
  <!-- Upper -->
  <path d="M49,37 Q47,22 46,6" stroke="#7DC8E8" stroke-width="4" fill="none" stroke-linecap="round"/>
  <!-- Upper-right -->
  <path d="M52,38 Q60,22 67,6" stroke="#7DC8E8" stroke-width="4" fill="none" stroke-linecap="round"/>
  <!-- Right -->
  <path d="M55,41 Q71,37 90,36" stroke="#7DC8E8" stroke-width="5" fill="none" stroke-linecap="round"/>
  <!-- Lower-right -->
  <path d="M54,47 Q67,53 83,57" stroke="#7DC8E8" stroke-width="5" fill="none" stroke-linecap="round"/>
  <!-- Lower-left -->
  <path d="M46,47 Q34,54 17,57" stroke="#7DC8E8" stroke-width="5" fill="none" stroke-linecap="round"/>
  <!-- Left -->
  <path d="M45,42 Q29,39 10,37" stroke="#7DC8E8" stroke-width="5" fill="none" stroke-linecap="round"/>

  <!-- Stamens (thin lines with small crossbars) -->
  <line x1="48" y1="38" x2="38" y2="18" stroke="#7DC8E8" stroke-width="1.5"/>
  <line x1="36" y1="17" x2="40" y2="19" stroke="#7DC8E8" stroke-width="1.5"/>
  <line x1="53" y1="38" x2="72" y2="24" stroke="#7DC8E8" stroke-width="1.5"/>
  <line x1="70" y1="23" x2="74" y2="26" stroke="#7DC8E8" stroke-width="1.5"/>
  <line x1="55" y1="42" x2="78" y2="42" stroke="#7DC8E8" stroke-width="1.5"/>
  <line x1="77" y1="40" x2="79" y2="44" stroke="#7DC8E8" stroke-width="1.5"/>

  <!-- Center -->
  <circle cx="50" cy="43" r="9" fill="#7DC8E8"/>
  <circle cx="50" cy="43" r="6.5" fill="#9ED8F0"/>
</svg>
